<?xml version="1.0" encoding="UTF-8"?>
<!-- Generator: Adobe Illustrator 19.1.0, SVG Export Plug-In . SVG Version: 6.00 Build 0)  -->
<svg version="1.1" id="Layer_2" xmlns="http://www.w3.org/2000/svg" xmlns:xlink="http://www.w3.org/1999/xlink" x="0px" y="0px" viewBox="127 4 284.4 23" style="enable-background:new 127 4 284.4 23;" xml:space="preserve">
<style type="text/css">
	.st0{fill:#fff;}
	.st1{fill:#FE500B;}
</style>
<path class="st0" d="M138.3,4l0.7,3c-3.5,0-12,0-12,0s0.2,0.9,0.3,1c0.3,0.5,0.6,1.1,1,1.5c1.9,2.2,5.2,3.1,7.9,3.6  c1.9,0.4,3.8,0.5,5.7,0.6l2.2,5.9h1.2l0.7,1.9h-1l-1.7,5.5H160l-1.7-5.5h-1l0.7-1.9h1.2c0,0,1-6.1,4.1-8.9c3-2.8,6.7-3.2,6.7-3.2V4  H138.3z M155.1,19.1c-0.8,0.5-1.7,0.5-2.3,0.9c-0.4,0.2-0.6,0.8-0.6,0.8c-0.4-0.9-0.9-1.2-1.5-1.4c-0.6-0.2-1.7-0.1-3.2-1.4  c-1-0.9-1.1-2.1-1-2.7v-0.1c0-0.1,0-0.1,0-0.2c0-0.1,0-0.2,0.1-0.3l0,0l0,0c0.2-0.6,0.7-1.2,1.7-1.6c0,0-0.7,1,0,2  c0.4,0.6,1.2,0.9,1.9,0.5c0.3-0.2,0.5-0.6,0.6-0.9c0.2-0.7,0.2-1.4-0.4-1.9c-0.9-0.8-1.1-1.9-0.5-2.6c0,0,0.2,0.9,1.1,0.8  c0.6,0,0.6-0.2,0.4-0.4c-0.1-0.3-1.4-2.2,0.5-3.6c0,0,1.2-0.8,2.6-0.7c-0.8,0.1-1.7,0.6-2,1.4c0,0,0,0,0,0.1  c-0.3,0.8-0.1,1.7,0.5,2.5c0.4,0.6,0.9,1.1,1.1,1.9c-0.3-0.1-0.5,0-0.7,0.2c-0.2,0.2-0.3,0.6-0.2,0.9c0.1,0.2,0.3,0.4,0.5,0.4  c0.1,0,0.1,0,0.2,0h0.1c0.3-0.1,0.5-0.5,0.4-0.8c0.2,0.2,0.3,0.7,0.2,1c0,0.3-0.2,0.6-0.3,0.8c-0.1,0.2-0.3,0.4-0.4,0.6  c-0.1,0.2-0.2,0.4-0.2,0.6c0,0.2,0,0.5,0.1,0.7c0.4,0.6,1.2,0,1.4-0.5c0.3-0.6,0.2-1.3-0.2-1.9c0,0,0.7,0.4,1.2,1.8  C156.6,17.2,155.9,18.6,155.1,19.1z"/>
<g>
	<g>
		<path class="st0" d="M196.1,24.6c-0.3,0.2-0.8,0.5-1.3,0.7c-0.6,0.2-1.2,0.4-1.9,0.6c-0.7,0.2-1.4,0.3-2.1,0.4    c-0.7,0.1-1.4,0.2-2,0.2c-1.6,0-3.2-0.3-4.6-0.8s-2.7-1.2-3.8-2.1c-1.1-0.9-1.9-2-2.5-3.3c-0.6-1.3-0.9-2.7-0.9-4.3    c0-1.5,0.3-2.9,0.9-4.2s1.4-2.5,2.5-3.5c1.1-1,2.3-1.8,3.8-2.4s3-0.9,4.7-0.9c1,0,1.9,0.1,2.7,0.3c0.7,0.2,1.4,0.4,1.9,0.6    c0.6,0.2,1,0.3,1.4,0.4c0.4,0.1,0.8,0,1.1-0.2l0.3,5.3h-0.9c-0.4-1.4-1.1-2.3-2.2-2.9c-1.1-0.6-2.4-0.9-3.9-0.9    c-1.1,0-2.1,0.2-3,0.7c-0.9,0.5-1.7,1.1-2.3,1.8c-0.6,0.8-1.1,1.6-1.4,2.7c-0.3,1-0.5,2.1-0.4,3.2c0.1,1.2,0.3,2.2,0.8,3.2    c0.4,1,1,1.8,1.7,2.5s1.5,1.2,2.5,1.6c0.9,0.4,1.9,0.6,2.9,0.6c0.8,0,1.5-0.1,2.1-0.2s1.2-0.3,1.7-0.7c0.5-0.3,0.9-0.8,1.2-1.3    s0.5-1.3,0.6-2.2h1L196.1,24.6z"/>
		<path class="st0" d="M214,25.1c-1.1,0.5-2.2,0.8-3.4,0.8c-0.9,0-1.8-0.1-2.6-0.4c-0.8-0.3-1.5-0.7-2.1-1.3c-0.6-0.6-1-1.3-1.4-2.2    c-0.3-0.9-0.5-2-0.5-3.4V9.2c0-0.9-0.1-1.5-0.4-1.9c-0.3-0.4-1-0.6-2.1-0.8c-0.1,0-0.3,0-0.5,0v-1l0.7,0.1    c0.8,0.1,1.4,0.1,1.8,0.2c0.4,0,0.8,0,1.3,0h3.5c0.4,0,0.9,0,1.3,0s1-0.1,1.8-0.2l0.6-0.1l-0.1,1c-0.2,0-0.3,0-0.5,0    c-1.1,0.1-1.8,0.4-2.1,0.8c-0.3,0.4-0.4,1-0.4,1.9v9.4c0,1.7,0.4,2.9,1.1,3.6c0.7,0.7,1.6,1.1,2.6,1.1c0.8,0,1.6-0.3,2.4-0.8    c0.7-0.5,1.3-1.2,1.8-2.1V9.2c0-0.9-0.1-1.5-0.4-1.9s-1-0.6-2.1-0.8c-0.1,0-0.3,0-0.5,0v-1l0.7,0.1c0.8,0.1,1.4,0.1,1.8,0.2    c0.4,0,0.8,0,1.3,0h3.5c0.4,0,0.9,0,1.3,0c0.4,0,1-0.1,1.8-0.2l0.7-0.1l-0.1,1c-0.2,0-0.3,0-0.5,0c-1.4,0.2-2.1,0.5-2.3,0.8    c-0.3,0.4-0.4,1-0.4,1.9v12.9c0,0.9,0.1,1.5,0.4,1.9s1,0.6,2.1,0.8c0.2,0,0.3,0,0.5,0l0.1,1.1H224c-0.8-0.1-1.4-0.1-1.8-0.2    c-0.4,0-0.8-0.1-1.3-0.1h-4.2v-2.7C216,23.8,215.1,24.6,214,25.1z"/>
		<path class="st0" d="M245.7,15.9c0.6,0.8,1.2,1.7,1.8,2.6c0.6,0.9,1.2,1.8,1.7,2.6s1,1.5,1.3,2c0.4,0.6,0.6,0.9,0.7,1    c0.1,0.2,0.3,0.5,0.5,0.8s0.4,0.6,0.6,0.9c0.2,0.3,0.3,0.5,0.4,0.7s0.1,0.3,0,0.4c-0.2,0.2-0.5,0.2-0.9,0.1    c-0.4-0.2-1-0.6-1.8-1.3l-9.4-8.4c-0.8-0.1-1.5-0.1-2.1-0.2v5.1c0,0.9,0.1,1.5,0.4,1.9s1,0.6,2.1,0.8c0.2,0,0.3,0,0.5,0l0.1,1H241    c-0.8-0.1-1.4-0.1-1.8-0.2c-0.4,0-0.8-0.1-1.3-0.1h-3.5c-0.4,0-0.9,0-1.3,0.1c-0.4,0-1,0.1-1.8,0.2h-0.7v-1c0.2,0,0.4,0,0.5,0    c1.1-0.1,1.8-0.4,2.1-0.8c0.3-0.4,0.4-1,0.4-1.9v-13c0-0.9-0.1-1.5-0.4-1.9s-1-0.6-2.1-0.8c-0.1,0-0.3,0-0.5,0v-1l0.7,0.1    c0.8,0.1,1.4,0.1,1.8,0.2c0.4,0,0.7,0,0.9,0s0.6,0,1.3,0c0.6,0,1.3,0,2.2,0c0.8,0,1.6,0,2.5,0c0.8,0,1.5,0,1.9,0    c2.3,0,4.1,0.5,5.4,1.5s1.9,2.2,1.9,3.6c0,1.1-0.3,2.2-0.9,3.1S246.6,15.4,245.7,15.9z M240,15.6c1.1,0,2-0.4,2.8-1.1    c0.8-0.7,1.2-1.8,1.2-3.1c0-1-0.3-1.8-0.9-2.6c-0.6-0.8-1.5-1.2-2.8-1.2c-0.6,0-1.1,0-1.4,0.2c-0.4,0.1-0.5,0.4-0.5,0.9v6.8    C239.2,15.6,239.7,15.6,240,15.6z"/>
		<path class="st0" d="M269.4,20.4c0,0.7-0.2,1.4-0.6,2.1s-0.9,1.3-1.6,1.9c-0.7,0.6-1.5,1.1-2.4,1.4s-2,0.5-3.1,0.5    c-1.3,0-2.5-0.2-3.5-0.6s-1.8-0.6-2.3-0.8l-0.9-5.4h1.1c0.4,1.5,0.9,2.7,1.7,3.4c0.8,0.7,1.8,1.1,3.2,1.1c1.2,0,2.1-0.2,2.8-0.8    c0.7-0.5,1-1.2,1-2.2c0-0.9-0.4-1.7-1.3-2.4c-0.8-0.7-2.1-1.5-3.8-2.4c-1.3-0.7-2.4-1.6-3.2-2.6c-0.8-1-1.2-2.1-1.2-3.3    c0-1.7,0.6-3,1.7-4c1.2-1,2.7-1.5,4.7-1.5c0.6,0,1.1,0,1.6,0.2c0.5,0.1,1,0.2,1.4,0.3c0.5,0.1,0.9,0.2,1.3,0.3    c0.4,0.1,0.9,0.1,1.5,0.1l0.7,4.6h-0.9c-0.6-1.3-1.3-2.2-2.2-2.7s-1.7-0.7-2.6-0.7s-1.6,0.2-2.1,0.7s-0.8,1.1-0.8,1.8    c0,0.4,0.1,0.7,0.4,1c0.3,0.3,0.6,0.6,1,0.9c0.4,0.3,0.8,0.6,1.3,0.8s0.9,0.5,1.3,0.7c1.9,1,3.3,2.1,4.3,3.2    C268.9,17.3,269.4,18.7,269.4,20.4z"/>
		<path class="st0" d="M281,15.9v5.4c0,0.8,0.1,1.3,0.2,1.5c0.1,0.2,0.6,0.2,1.3,0.2c0.1,0,0.3,0,0.6,0s0.7,0,1.1,0c0.4,0,0.7,0,1,0    h0.5c0.6,0,1.1,0,1.5-0.1s0.7-0.2,1-0.4c0.3-0.2,0.6-0.5,0.8-0.8c0.3-0.3,0.5-0.7,0.9-1.2l1.2-0.1c-0.3,0.6-0.6,1.1-0.8,1.6    c-0.2,0.5-0.3,1-0.4,1.5c-0.1,0.5-0.2,0.9-0.3,1.3s-0.1,0.7-0.2,1c-0.1,0-0.4,0-0.9,0s-1.2,0-2-0.1c-0.8,0-1.6,0-2.2,0h-7.4    c-0.4,0-0.9,0-1.3,0.1c-0.4,0-1,0.1-1.8,0.2h-0.6v-1.1c0.1,0,0.2,0,0.3,0c0.1,0,0.2,0,0.2,0c1.1-0.1,1.8-0.3,2.1-0.7    c0.3-0.4,0.4-1,0.4-1.9v-13c0-0.9-0.1-1.5-0.4-1.9c-0.3-0.4-1-0.6-2.1-0.7c-0.1,0-0.2,0-0.2,0c-0.1,0-0.2,0-0.3,0V5.5l0.6,0.1    c0.8,0.1,1.4,0.1,1.8,0.2c0.4,0,0.8,0,1.3,0h12.5l0.7,4.9h-1c-0.1-0.5-0.3-0.9-0.4-1.2c-0.1-0.3-0.3-0.5-0.5-0.7    c-0.2-0.2-0.4-0.3-0.7-0.3s-0.7-0.1-1.2-0.1L281,8.3v5.2h3.6c0.3,0,0.6-0.2,0.8-0.5c0.2-0.3,0.4-0.6,0.5-0.9h0.4    c0.5,1.2,1.3,2,2.5,2.5V15c-1.2,0.5-2,1.3-2.5,2.5H286c-0.1-0.3-0.3-0.6-0.5-0.9c-0.2-0.3-0.5-0.5-0.8-0.5H281V15.9z"/>
	</g>
</g>
<g>
	<path class="st1" d="M304.2,24.1c0.3,0.4,1,0.6,2.1,0.8c0.2,0,0.3,0,0.5,0l0.1,1.1h-0.6c-0.8-0.1-1.4-0.1-1.8-0.2   c-0.4,0-0.8-0.1-1.3-0.1h-3.5c-0.4,0-0.9,0-1.3,0.1c-0.4,0-1,0.1-1.8,0.2h-0.7v-1.1c0.2,0,0.4,0,0.5,0c1.1-0.1,1.8-0.4,2.1-0.8   s0.4-1,0.4-1.9V9.3c0-0.9-0.1-1.5-0.4-1.9s-1-0.6-2.1-0.7c-0.1,0-0.2,0-0.2,0c-0.1,0-0.2,0-0.3,0V5.5l0.6,0.1   c0.8,0.1,1.4,0.1,1.8,0.2c0.4,0,0.8,0,1.3,0h12.5l0.7,4.9h-1c-0.1-0.5-0.3-0.9-0.4-1.2c-0.1-0.3-0.3-0.5-0.5-0.7   c-0.2-0.2-0.4-0.3-0.7-0.3s-0.7-0.1-1.2-0.1l-5.3-0.1v5.2h3.6c0.3,0,0.6-0.2,0.8-0.5c0.2-0.3,0.4-0.6,0.5-0.9h0.4   c0.5,1.2,1.3,2,2.5,2.5V15c-1.2,0.5-2,1.3-2.5,2.5h-0.4c-0.1-0.3-0.3-0.6-0.5-0.9c-0.2-0.3-0.5-0.5-0.8-0.5h-3.6v6.2   C303.8,23.1,304,23.7,304.2,24.1z"/>
	<path class="st1" d="M339.7,15.4c0,1.5-0.3,2.9-0.9,4.2c-0.6,1.3-1.4,2.5-2.4,3.5s-2.3,1.8-3.7,2.4s-3,0.9-4.7,0.9   c-1.6,0-3.2-0.3-4.6-0.8c-1.4-0.5-2.7-1.2-3.8-2.1s-1.9-2-2.5-3.3s-0.9-2.7-0.9-4.3c0-1.5,0.3-2.9,0.9-4.2s1.4-2.5,2.5-3.5   s2.3-1.8,3.8-2.4s3-0.9,4.7-0.9c1.6,0,3.2,0.2,4.6,0.7c1.4,0.5,2.7,1.2,3.7,2.1c1.1,0.9,1.9,2,2.5,3.3   C339.4,12.4,339.7,13.8,339.7,15.4z M334.7,15.7c-0.1-1.1-0.3-2.1-0.7-3s-0.9-1.8-1.6-2.5c-0.7-0.7-1.4-1.3-2.3-1.7   c-0.9-0.4-1.8-0.5-2.9-0.5c-1,0-1.9,0.2-2.7,0.6c-0.8,0.4-1.4,1-2,1.7c-0.5,0.7-0.9,1.5-1.2,2.5c-0.3,1-0.3,1.9-0.2,3   s0.4,2.1,0.8,3c0.4,0.9,0.9,1.8,1.6,2.5c0.7,0.7,1.4,1.3,2.3,1.7c0.9,0.4,1.8,0.6,2.9,0.6c1,0,1.9-0.2,2.7-0.6c0.8-0.4,1.4-1,2-1.7   c0.5-0.7,0.9-1.5,1.2-2.5C334.7,17.8,334.8,16.8,334.7,15.7z M328.2,18.9h-0.5c-0.6-1.4-1.7-2.4-3.1-3v-0.5   c1.4-0.6,2.4-1.7,3.1-3.1h0.5c0.6,1.4,1.6,2.4,3,3.1v0.5C329.8,16.5,328.8,17.5,328.2,18.9z"/>
	<path class="st1" d="M358.8,15.9c0.6,0.8,1.2,1.7,1.8,2.6c0.6,0.9,1.2,1.8,1.7,2.6s1,1.5,1.3,2c0.4,0.6,0.6,0.9,0.7,1   c0.1,0.2,0.3,0.5,0.5,0.8c0.2,0.3,0.4,0.6,0.6,0.9c0.2,0.3,0.3,0.5,0.4,0.7c0.1,0.2,0.1,0.3,0,0.4c-0.2,0.2-0.5,0.2-0.9,0.1   c-0.4-0.2-1-0.6-1.8-1.3l-9.4-8.4c-0.8-0.1-1.5-0.1-2.1-0.2v5.1c0,0.9,0.1,1.5,0.4,1.9s1,0.6,2.1,0.8c0.2,0,0.3,0,0.5,0l0.1,1h-0.6   c-0.8-0.1-1.4-0.1-1.8-0.2c-0.4,0-0.8-0.1-1.3-0.1h-3.5c-0.4,0-0.9,0-1.3,0.1c-0.4,0-1,0.1-1.8,0.2h-0.7v-1c0.2,0,0.4,0,0.5,0   c1.1-0.1,1.8-0.4,2.1-0.8c0.3-0.4,0.4-1,0.4-1.9v-13c0-0.9-0.1-1.5-0.4-1.9s-1-0.6-2.1-0.8c-0.1,0-0.3,0-0.5,0v-1l0.7,0.1   c0.8,0.1,1.4,0.1,1.8,0.2c0.4,0,0.7,0,0.9,0c0.2,0,0.6,0,1.3,0c0.6,0,1.3,0,2.2,0c0.8,0,1.6,0,2.5,0c0.8,0,1.5,0,1.9,0   c2.3,0,4.1,0.5,5.4,1.5c1.3,1,1.9,2.2,1.9,3.6c0,1.1-0.3,2.2-0.9,3.1C360.8,14.9,359.7,15.4,358.8,15.9z M353.1,15.6   c1.1,0,2-0.4,2.8-1.1c0.8-0.7,1.2-1.8,1.2-3.1c0-1-0.3-1.8-0.9-2.6c-0.6-0.8-1.5-1.2-2.8-1.2c-0.6,0-1.1,0-1.4,0.2   c-0.4,0.1-0.5,0.4-0.5,0.9v6.8C352.3,15.6,352.8,15.6,353.1,15.6z"/>
	<path class="st1" d="M379.2,26.4c-1.6,0-3.2-0.3-4.6-0.8c-1.4-0.5-2.7-1.2-3.8-2.1s-1.9-2-2.5-3.3s-0.9-2.7-0.9-4.3   c0-1.5,0.3-2.9,0.9-4.2c0.6-1.3,1.4-2.5,2.5-3.5s2.3-1.8,3.8-2.4s3-0.9,4.7-0.9c1,0,2,0.1,2.8,0.3c0.8,0.2,1.5,0.4,2.2,0.6   c0.6,0.2,1.2,0.4,1.7,0.5s0.9,0.1,1.2-0.2l0.3,5.7h-0.9c-0.1-0.7-0.4-1.3-0.9-1.8s-1-1-1.6-1.4c-0.6-0.4-1.3-0.7-2-0.9   s-1.4-0.3-2.2-0.3c-1.1,0-2.1,0.2-3,0.7c-0.9,0.5-1.7,1.1-2.3,1.8c-0.6,0.8-1.1,1.6-1.4,2.7c-0.3,1-0.5,2.1-0.4,3.2   c0.1,1.2,0.3,2.2,0.8,3.2c0.4,1,1,1.8,1.7,2.5s1.5,1.2,2.5,1.6c0.9,0.4,1.9,0.6,2.9,0.6c0.8,0,1.6-0.1,2.4-0.3V20   c0-0.9-0.1-1.5-0.4-1.9s-1-0.6-2.1-0.8c-0.2,0-0.3,0-0.5,0v-1h0.6c0.8,0.1,1.4,0.1,1.8,0.2c0.4,0,0.8,0.1,1.3,0.1h3.5   c0.4,0,0.9,0,1.3-0.1s1-0.1,1.8-0.2h0.7v1c-0.2,0-0.4,0-0.5,0c-1.1,0.1-1.8,0.4-2.1,0.8c-0.3,0.4-0.4,1-0.4,1.9   c0,2.8-0.2,4.4-0.7,4.6s-1.1,0.4-1.9,0.7c-0.8,0.3-1.7,0.5-2.7,0.7C381.5,26.3,380.4,26.4,379.2,26.4z"/>
	<path class="st1" d="M401.4,15.9v5.4c0,0.8,0.1,1.3,0.2,1.5s0.6,0.2,1.3,0.2c0.1,0,0.3,0,0.6,0c0.3,0,0.7,0,1.1,0s0.7,0,1,0h0.5   c0.6,0,1.1,0,1.5-0.1s0.7-0.2,1-0.4c0.3-0.2,0.6-0.5,0.8-0.8c0.3-0.3,0.5-0.7,0.9-1.2l1.2-0.1c-0.3,0.6-0.6,1.1-0.8,1.6   c-0.2,0.5-0.3,1-0.4,1.5s-0.2,0.9-0.3,1.3c-0.1,0.4-0.1,0.7-0.2,1c-0.1,0-0.4,0-0.9,0s-1.2,0-2-0.1c-0.8,0-1.6,0-2.2,0h-7.4   c-0.4,0-0.9,0-1.3,0.1c-0.4,0-1,0.1-1.8,0.2h-0.6v-1.1c0.1,0,0.2,0,0.3,0c0.1,0,0.2,0,0.2,0c1.1-0.1,1.8-0.3,2.1-0.7   c0.3-0.4,0.4-1,0.4-1.9v-13c0-0.9-0.1-1.5-0.4-1.9s-1-0.6-2.1-0.7c-0.1,0-0.2,0-0.2,0c-0.1,0-0.2,0-0.3,0V5.5l0.6,0.1   c0.8,0.1,1.4,0.1,1.8,0.2c0.4,0,0.8,0,1.3,0h12.5l0.7,4.9h-1c-0.1-0.5-0.3-0.9-0.4-1.2s-0.3-0.5-0.5-0.7s-0.4-0.3-0.7-0.3   s-0.7-0.1-1.2-0.1l-5.3-0.1v5.2h3.6c0.3,0,0.6-0.2,0.8-0.5c0.2-0.3,0.4-0.6,0.5-0.9h0.4c0.5,1.2,1.3,2,2.5,2.5V15   c-1.2,0.5-2,1.3-2.5,2.5h-0.4c-0.1-0.3-0.3-0.6-0.5-0.9c-0.2-0.3-0.5-0.5-0.8-0.5h-3.6V15.9z"/>
</g>
</svg>