<?xml version="1.0" encoding="UTF-8" standalone="no"?>
<svg
   xmlns:dc="http://purl.org/dc/elements/1.1/"
   xmlns:cc="http://creativecommons.org/ns#"
   xmlns:rdf="http://www.w3.org/1999/02/22-rdf-syntax-ns#"
   xmlns:svg="http://www.w3.org/2000/svg"
   xmlns="http://www.w3.org/2000/svg"
   xmlns:sodipodi="http://sodipodi.sourceforge.net/DTD/sodipodi-0.dtd"
   xmlns:inkscape="http://www.inkscape.org/namespaces/inkscape"
   width="480.53204"
   height="104.753"
   viewBox="0 0 480.53204 104.753"
   version="1.1"
   preserveAspectRatio="xMidYMid"
   id="svg956"
   sodipodi:docname="github.svg"
   inkscape:version="1.0.1 (3bc2e813f5, 2020-09-07)">
  <metadata
     id="metadata962">
    <rdf:RDF>
      <cc:Work
         rdf:about="">
        <dc:format>image/svg+xml</dc:format>
        <dc:type
           rdf:resource="http://purl.org/dc/dcmitype/StillImage" />
        <dc:title></dc:title>
      </cc:Work>
    </rdf:RDF>
  </metadata>
  <defs
     id="defs960">
    <clipPath
       clipPathUnits="userSpaceOnUse"
       id="clipPath1042">
      <path
         d="M 0,551.986 H 530.973 V 0 H 0 Z"
         id="path1040" />
    </clipPath>
  </defs>
  <sodipodi:namedview
     pagecolor="#2c2c2c"
     bordercolor="#666666"
     borderopacity="1"
     objecttolerance="10"
     gridtolerance="10"
     guidetolerance="10"
     inkscape:pageopacity="0"
     inkscape:pageshadow="2"
     inkscape:window-width="1600"
     inkscape:window-height="1137"
     id="namedview958"
     showgrid="false"
     fit-margin-top="0"
     fit-margin-bottom="0"
     lock-margins="true"
     fit-margin-left="0"
     fit-margin-right="0"
     inkscape:zoom="1.28"
     inkscape:cx="270.67255"
     inkscape:cy="204.80651"
     inkscape:window-x="1272"
     inkscape:window-y="-8"
     inkscape:window-maximized="1"
     inkscape:current-layer="svg956"
     inkscape:document-rotation="0" />
  <g
     id="g954"
     transform="matrix(0.69451829,0,0,0.69451829,124.93867,4.1920876)">
    <path
       d="M 98.69616,59.312447 H 55.635496 c -1.110768,0 -2.0124,0.902699 -2.0124,2.013467 v 21.053374 c 0,1.110768 0.901632,2.014534 2.0124,2.014534 h 16.798098 v 26.156928 c 0,0 -3.771917,1.28576 -14.199904,1.28576 -12.302742,0 -29.489235,-4.49535 -29.489235,-42.287072 0,-37.800255 17.896061,-42.773635 34.69736,-42.773635 14.543484,0 20.809027,2.560848 24.795414,3.794323 1.252681,0.384128 2.411465,-0.863219 2.411465,-1.975054 L 95.452419,8.2534006 C 95.452419,7.7337618 95.27636,7.107421 94.683097,6.68168 93.064428,5.5271642 83.187022,0 58.23369,0 29.487101,0 0,12.230185 0,71.022993 c 0,58.794937 33.760517,67.556247 62.209407,67.556247 23.555536,0 37.845073,-10.06627 37.845073,-10.06627 0.58899,-0.32544 0.65301,-1.14811 0.65301,-1.52584 V 61.325914 c 0,-1.110768 -0.900562,-2.013467 -2.01133,-2.013467 z M 320.4955,7.3592378 c 0,-1.1203712 -0.88776,-2.0241372 -1.99853,-2.0241372 h -24.2459 c -1.10757,0 -2.00813,0.903766 -2.00813,2.0241372 0,0.00534 0.006,46.8560542 0.006,46.8560542 H 254.45656 V 7.3592378 c 0,-1.1203712 -0.89203,-2.0241372 -2.00067,-2.0241372 h -24.24483 c -1.1033,0 -2.0028,0.903766 -2.0028,2.0241372 V 134.23113 c 0,1.1193 0.8995,2.03054 2.0028,2.03054 h 24.24483 c 1.10864,0 2.00067,-0.91124 2.00067,-2.03054 V 79.963555 h 37.79278 c 0,0 -0.0661,54.263305 -0.0661,54.267575 0,1.1193 0.89949,2.03054 2.00813,2.03054 h 24.30352 c 1.11076,0 1.99852,-0.91124 2.00066,-2.03054 z M 144.37102,24.321656 c 0,-8.730358 -6.99965,-15.7854951 -15.63504,-15.7854951 -8.62686,0 -15.63185,7.0551371 -15.63185,15.7854951 0,8.720756 7.00499,15.795099 15.63185,15.795099 8.63539,0 15.63504,-7.074343 15.63504,-15.795099 z m -1.92383,83.212634 V 48.969821 c 0,-1.111835 -0.89737,-2.020936 -2.006,-2.020936 h -24.16907 c -1.10864,0 -2.10097,1.143846 -2.10097,2.255681 v 83.905124 c 0,2.46589 1.53651,3.19893 3.52544,3.19893 h 21.77574 c 2.38906,0 2.97486,-1.17266 2.97486,-3.23841 z M 413.16193,46.948885 h -24.06024 c -1.1033,0 -2.00173,0.909101 -2.00173,2.028406 V 111.1867 c 0,0 -6.11189,4.47188 -14.78783,4.47188 -8.67487,0 -10.9775,-3.93624 -10.9775,-12.43079 V 48.977291 c 0,-1.119305 -0.8963,-2.028406 -2.00067,-2.028406 h -24.41875 c -1.10223,0 -2.00493,0.909101 -2.00493,2.028406 v 58.358529 c 0,25.23076 14.06226,31.40347 33.40733,31.40347 15.86979,0 28.6655,-8.7677 28.6655,-8.7677 0,0 0.60926,4.62019 0.88455,5.16864 0.27636,0.54632 0.99446,1.09797 1.77019,1.09797 l 15.53475,-0.0683 c 1.10223,0 2.00493,-0.91124 2.00493,-2.02521 l -0.007,-85.167409 c 0,-1.119305 -0.8995,-2.028406 -2.00813,-2.028406 z m 55.43489,68.757705 c -8.34516,-0.25395 -14.0057,-4.0408 -14.0057,-4.0408 V 71.488214 c 0,0 5.58478,-3.423001 12.43612,-4.03547 8.6642,-0.775724 17.01256,1.841676 17.01256,22.509856 0,21.79495 -3.76764,26.09611 -15.44298,25.74399 z m 9.49008,-71.482874 c -13.66533,0 -22.96014,6.096953 -22.96014,6.096953 V 7.3592378 c 0,-1.1203712 -0.89523,-2.0241372 -2.00066,-2.0241372 h -24.31419 c -1.10543,0 -2.00386,0.903766 -2.00386,2.0241372 V 134.23113 c 0,1.1193 0.89843,2.03054 2.00706,2.03054 h 16.86959 c 0.75972,0 1.33484,-0.3916 1.75951,-1.07769 0.41935,-0.68183 1.02435,-5.84941 1.02435,-5.84941 0,0 9.94249,9.42179 28.76366,9.42179 C 499.32807,138.75636 512,127.54838 512,88.441029 512,49.333675 491.76183,44.223716 478.0869,44.223716 Z m -265.85767,2.507497 h -18.18735 c 0,0 -0.0277,-24.021824 -0.0277,-24.027159 0,-0.909101 -0.46842,-1.363652 -1.51943,-1.363652 H 167.71 c -0.96352,0 -1.48102,0.423607 -1.48102,1.349781 v 24.829558 c 0,0 -12.42011,2.998326 -13.25986,3.24054 -0.83654,0.242214 -1.45221,1.013669 -1.45221,1.933441 v 15.603035 c 0,1.122505 0.89629,2.027338 2.00493,2.027338 h 12.70714 v 37.535635 c 0,27.88017 19.55635,30.61921 32.75325,30.61921 6.02973,0 13.24279,-1.93664 14.43358,-2.37626 0.72024,-0.26462 1.13851,-1.01046 1.13851,-1.81927 l 0.0203,-17.16408 c 0,-1.11931 -0.94538,-2.0252 -2.01026,-2.0252 -1.05955,0 -3.77085,0.43107 -6.56217,0.43107 -8.9331,0 -11.96023,-4.15391 -11.96023,-9.53062 0,-5.37245 -10e-4,-35.670485 -10e-4,-35.670485 h 18.18842 c 1.10864,0 2.006,-0.904833 2.006,-2.027338 V 48.753216 c 0,-1.119304 -0.89736,-2.022003 -2.006,-2.022003 z"
       fill="#ffffff"
       id="path952" />
  </g>
  <g
     id="g1032"
     inkscape:label="GitHub-Mark"
     transform="matrix(1.174751,0,0,-1.174751,-440.42001,241.05154)">
    <g
       id="g1036"
       transform="translate(-7.5008014,-3.500374)">
      <g
         id="g1038"
         clip-path="url(#clipPath1042)"
         transform="translate(25.002671,12.001282)">
        <g
           id="g1591"
           transform="matrix(0.75700415,0,0,0.75700415,128.87166,41.63913)">
          <g
             id="g1222"
             transform="translate(362.27731,204.82542)">
            <path
               d="m 0,0 c -33.347,0 -60.388,-27.035 -60.388,-60.388 0,-26.68 17.303,-49.316 41.297,-57.301 3.018,-0.559 4.126,1.31 4.126,2.905 0,1.439 -0.056,6.197 -0.082,11.243 -16.8,-3.653 -20.345,7.125 -20.345,7.125 -2.747,6.979 -6.705,8.836 -6.705,8.836 -5.479,3.748 0.413,3.671 0.413,3.671 6.064,-0.426 9.257,-6.224 9.257,-6.224 5.386,-9.231 14.127,-6.562 17.573,-5.019 0.543,3.902 2.107,6.567 3.834,8.075 -13.413,1.526 -27.513,6.705 -27.513,29.844 0,6.592 2.359,11.979 6.222,16.208 -0.627,1.522 -2.694,7.664 0.586,15.982 0,0 5.071,1.622 16.61,-6.191 4.817,1.338 9.983,2.009 15.115,2.033 5.132,-0.024 10.302,-0.695 15.128,-2.033 11.526,7.813 16.59,6.191 16.59,6.191 3.287,-8.318 1.22,-14.46 0.593,-15.982 3.872,-4.229 6.214,-9.616 6.214,-16.208 0,-23.195 -14.127,-28.301 -27.574,-29.796 2.166,-1.874 4.096,-5.549 4.096,-11.183 0,-8.08 -0.069,-14.583 -0.069,-16.572 0,-1.608 1.086,-3.491 4.147,-2.898 23.982,7.994 41.263,30.622 41.263,57.294 C 60.388,-27.035 33.351,0 0,0"
               style="fill:#ffffff;fill-opacity:1;fill-rule:evenodd;stroke:none"
               id="path1224" />
          </g>
          <g
             id="g1226"
             transform="translate(324.76171,118.12222)">
            <path
               d="m 0,0 c -0.133,-0.301 -0.605,-0.391 -1.035,-0.184 -0.439,0.197 -0.684,0.606 -0.542,0.907 0.13,0.308 0.602,0.394 1.04,0.188 C -0.099,0.714 0.151,0.301 0,0"
               style="fill:#ffffff;fill-opacity:1;fill-rule:nonzero;stroke:none"
               id="path1228" />
          </g>
          <g
             id="g1230"
             transform="translate(327.20801,115.39372)">
            <path
               d="M 0,0 C -0.288,-0.267 -0.852,-0.143 -1.233,0.279 -1.629,0.7 -1.702,1.264 -1.41,1.534 -1.113,1.801 -0.567,1.676 -0.172,1.255 0.224,0.829 0.301,0.27 0,0"
               style="fill:#ffffff;fill-opacity:1;fill-rule:nonzero;stroke:none"
               id="path1232" />
          </g>
          <g
             id="g1234"
             transform="translate(329.58891,111.91622)">
            <path
               d="M 0,0 C -0.37,-0.258 -0.976,-0.017 -1.35,0.52 -1.72,1.058 -1.72,1.702 -1.341,1.96 -0.967,2.218 -0.37,1.985 0.009,1.453 0.378,0.907 0.378,0.263 0,0"
               style="fill:#ffffff;fill-opacity:1;fill-rule:nonzero;stroke:none"
               id="path1236" />
          </g>
          <g
             id="g1238"
             transform="translate(332.85061,108.55582)">
            <path
               d="M 0,0 C -0.331,-0.365 -1.036,-0.267 -1.552,0.231 -2.08,0.718 -2.227,1.409 -1.896,1.774 -1.56,2.14 -0.851,2.037 -0.331,1.543 0.193,1.057 0.352,0.361 0,0"
               style="fill:#ffffff;fill-opacity:1;fill-rule:nonzero;stroke:none"
               id="path1240" />
          </g>
          <g
             id="g1242"
             transform="translate(337.35061,106.60472)">
            <path
               d="m 0,0 c -0.147,-0.473 -0.825,-0.687 -1.509,-0.486 -0.683,0.207 -1.13,0.76 -0.992,1.238 0.142,0.477 0.824,0.7 1.513,0.485 C -0.306,1.031 0.142,0.481 0,0"
               style="fill:#ffffff;fill-opacity:1;fill-rule:nonzero;stroke:none"
               id="path1244" />
          </g>
          <g
             id="g1246"
             transform="translate(342.29301,106.24332)">
            <path
               d="m 0,0 c 0.017,-0.498 -0.563,-0.911 -1.281,-0.92 -0.722,-0.017 -1.307,0.387 -1.315,0.877 0,0.503 0.568,0.911 1.289,0.924 C -0.589,0.895 0,0.494 0,0"
               style="fill:#ffffff;fill-opacity:1;fill-rule:nonzero;stroke:none"
               id="path1248" />
          </g>
          <g
             id="g1250"
             transform="translate(346.89161,107.02562)">
            <path
               d="m 0,0 c 0.086,-0.485 -0.413,-0.984 -1.126,-1.117 -0.701,-0.129 -1.35,0.172 -1.439,0.653 -0.087,0.498 0.42,0.997 1.121,1.126 C -0.73,0.786 -0.091,0.494 0,0"
               style="fill:#ffffff;fill-opacity:1;fill-rule:nonzero;stroke:none"
               id="path1252" />
          </g>
        </g>
      </g>
    </g>
  </g>
</svg>
