<?xml version="1.0" encoding="UTF-8" standalone="no"?>
<svg
   xmlns:dc="http://purl.org/dc/elements/1.1/"
   xmlns:cc="http://creativecommons.org/ns#"
   xmlns:rdf="http://www.w3.org/1999/02/22-rdf-syntax-ns#"
   xmlns:svg="http://www.w3.org/2000/svg"
   xmlns="http://www.w3.org/2000/svg"
   xmlns:sodipodi="http://sodipodi.sourceforge.net/DTD/sodipodi-0.dtd"
   xmlns:inkscape="http://www.inkscape.org/namespaces/inkscape"
   width="885.336"
   height="236.966"
   viewBox="0 0 885.336 236.96601"
   version="1.1"
   id="svg2299"
   sodipodi:docname="trello.svg"
   inkscape:version="1.0.1 (3bc2e813f5, 2020-09-07)">
  <metadata
     id="metadata2303">
    <rdf:RDF>
      <cc:Work
         rdf:about="">
        <dc:format>image/svg+xml</dc:format>
        <dc:type
           rdf:resource="http://purl.org/dc/dcmitype/StillImage" />
        <dc:title>trello-logo-blue-flat</dc:title>
      </cc:Work>
    </rdf:RDF>
  </metadata>
  <sodipodi:namedview
     pagecolor="#ffffff"
     bordercolor="#666666"
     borderopacity="1"
     objecttolerance="10"
     gridtolerance="10"
     guidetolerance="10"
     inkscape:pageopacity="0"
     inkscape:pageshadow="2"
     inkscape:window-width="1600"
     inkscape:window-height="1137"
     id="namedview2301"
     showgrid="false"
     fit-margin-left="0"
     fit-margin-right="0"
     fit-margin-bottom="0"
     fit-margin-top="0"
     inkscape:zoom="0.86770388"
     inkscape:cx="344.24014"
     inkscape:cy="22.91959"
     inkscape:window-x="1272"
     inkscape:window-y="-8"
     inkscape:window-maximized="1"
     inkscape:current-layer="Trello-Logo---Blue---Flat"
     inkscape:document-rotation="0"
     lock-margins="false" />
  <!-- Generator: Sketch 41 (35326) - http://www.bohemiancoding.com/sketch -->
  <title
     id="title2275">trello-logo-blue-flat</title>
  <desc
     id="desc2277">Created with Sketch.</desc>
  <defs
     id="defs2284">
    <linearGradient
       x1="100"
       y1="0"
       x2="100"
       y2="200"
       id="linearGradient-1"
       gradientUnits="userSpaceOnUse"
       gradientTransform="translate(0,1.4832001)">
      <stop
         stop-color="#0079BF"
         offset="0%"
         id="stop2279" />
      <stop
         stop-color="#0079BF"
         offset="100%"
         id="stop2281" />
    </linearGradient>
  </defs>
  <g
     id="Page-1"
     stroke="none"
     stroke-width="1"
     fill="none"
     fill-rule="evenodd"
     transform="translate(-49.999999,-37.483093)">
    <g
       id="Logos"
       transform="translate(-509,-485)">
      <g
         id="Group"
         transform="translate(-9,1)">
        <g
           id="Trello-Logo"
           transform="translate(468)">
          <g
             id="Trello-Logo---Blue---Flat"
             transform="translate(0,420)">
            <g
               id="Logo"
               transform="translate(49.999999,64)">
              <g
                 transform="translate(50,1)"
                 id="g2291">
                <path
                   d="m 723.29354,214.07231 c -12.77067,5.20362 -22.84826,23.18132 -38.17514,33.39922 -0.9504,0.6336 -1.9008,0.9504 -2.5344,0.9504 -1.2672,0 -2.8512,-1.2672 -2.8512,-6.96959 0,-19.64156 6.336,-29.14555 11.7216,-43.08472 18.6912,-48.47032 50.688,-89.97105 79.2,-135.273372 2.2176,-3.484794 3.4848,-7.286388 3.4848,-11.404781 0,-3.484794 -1.2672,-6.335989 -2.8512,-9.820783 -1.2672,-2.851195 -6.9696,-5.385591 -13.3056,-5.385591 -3.4848,0 -6.6528,0.316799 -10.7712,0.316799 -14.8896,0 -18.0576,21.859164 -21.5424,27.561554 -23.76,40.233534 -51.0048,89.971044 -64.944,125.135784 -3.0567,7.88305 -6.35849,15.76611 -8.86817,23.85659 -13.77475,3.98879 -24.09418,23.35663 -40.23583,34.11771 -0.9504,0.6336 -1.9008,0.9504 -2.5344,0.9504 -1.2672,0 -2.8512,-1.2672 -2.8512,-6.96959 0,-19.64156 6.336,-29.14555 11.7216,-43.08472 18.6912,-48.47032 50.688,-89.97105 79.2,-135.273372 2.2176,-3.484794 3.4848,-7.286388 3.4848,-11.404781 0,-3.484794 -1.2672,-6.335989 -2.8512,-9.820783 -1.2672,-2.851195 -6.9696,-5.385591 -13.3056,-5.385591 -3.4848,0 -6.6528,0.316799 -10.7712,0.316799 -14.8896,0 -18.0576,21.859164 -21.5424,27.561554 -23.76,40.233534 -51.0048,89.971044 -64.944,125.135784 -1.10816,2.85789 -2.24854,5.71577 -3.3717,8.58355 -0.34684,0.18526 -0.70102,0.38615 -1.0635,0.60364 -16.1568,9.50398 -29.7792,26.29435 -49.4208,37.69913 -3.8016,2.2176 -15.5232,10.45438 -25.0272,10.45438 -2.2176,0 -4.1184,-0.63359 -6.0192,-1.58399 -2.8512,-1.2672 -5.7024,-7.28639 -5.7024,-9.18719 0,-1.58399 0.3168,-1.90079 3.4848,-3.80159 27.8784,-16.79037 50.688,-40.86713 70.3296,-64.94389 7.2864,-8.87039 16.7904,-26.29436 16.7904,-38.96634 0,-8.23678 -2.8512,-17.74077 -12.672,-21.22556 -6.9696,-2.53439 -14.8896,-3.80159 -21.2256,-3.80159 -16.7904,0 -29.1456,7.60318 -36.1152,14.88957 -7.09544,7.57485 -13.95871,15.35285 -20.33509,23.40424 -6.66231,-5.75182 -16.05941,-8.19786 -24.96731,-8.19786 -10.4544,0 -30.096,12.98877 -40.2336,20.59196 -1.584,1.2672 -2.5344,1.9008 -3.168,1.9008 -0.3168,0 -0.6336,-0.3168 -0.6336,-0.9504 0,-0.3168 0.6336,-3.16799 0.6336,-8.23679 0,-4.43519 -0.9504,-10.13758 -5.0688,-17.10717 -0.9504,-1.58399 -6.6528,-5.06879 -13.6224,-5.06879 -8.5536,0 -16.4736,4.11839 -16.4736,8.55359 0,3.16799 2.8512,4.43519 2.8512,7.28638 0,1.584 -1.2672,8.87039 -3.168,15.83998 -5.3856,20.27516 -12.0384,40.23353 -19.008,60.1919 -3.8016,11.08798 -16.4736,20.90876 -16.4736,32.94714 0,3.80159 2.5344,8.87039 6.0192,12.67198 5.7024,6.33599 9.1872,8.55358 14.256,8.55358 2.2176,0 4.752,-0.63359 6.9696,-2.53439 4.752,-4.11839 7.2864,-8.23679 8.5536,-13.93918 8.2368,-37.38233 31.9968,-62.72629 58.2912,-79.51666 8.8704,-5.70239 20.9088,-11.72158 22.4928,-11.72158 1.62424,0 4.1645,0.74948 6.72419,1.4799 -7.35027,11.98884 -13.30585,24.63224 -17.17859,38.12003 -1.2672,4.43519 -1.9008,8.55359 -1.9008,12.98878 0,7.28639 1.584,14.88957 4.1184,22.17596 3.4848,10.13758 9.1872,19.00797 17.1072,23.12636 14.5728,7.60319 25.0272,11.72158 34.5312,11.72158 5.3856,0 9.504,-0.9504 13.9392,-3.48479 20.82227,-11.781 33.58848,-20.7187 42.80676,-28.6573 0.25276,8.04905 1.83941,12.50843 7.56444,18.51971 5.7024,6.01919 14.5728,11.40479 26.2944,13.93918 1.9008,0.3168 3.8016,0.6336 5.7024,0.6336 13.4111,0 26.31755,-10.90044 36.26967,-21.70631 1.15227,2.35803 2.82673,4.60892 5.23113,7.13353 5.7024,6.01919 14.5728,11.40479 26.2944,13.93918 1.9008,0.3168 3.8016,0.6336 5.7024,0.6336 15.70977,0 30.72706,-14.95735 41.11436,-27.19901 3.46192,7.16049 13.13618,14.23998 24.78004,19.91262 3.168,1.584 6.9696,2.5344 10.4544,2.5344 13.6224,0 23.4432,-11.08798 31.0464,-19.32477 19.6416,-21.54236 30.4128,-48.15352 38.6496,-81.73426 0.6336,-2.5344 1.584,-3.4848 2.8512,-3.4848 3.168,0 7.2864,0 11.7216,-0.63359 8.5536,-1.2672 15.2064,-4.1184 23.1264,-5.3856 4.752,-0.95039 4.1184,-2.53439 8.5536,-4.11839 3.168,-1.2672 5.7024,-2.53439 5.7024,-5.70239 0,-5.38559 -9.8208,-11.08798 -24.7104,-11.08798 -11.7216,0 -18.6912,0.9504 -23.4432,0.9504 -7.2864,0 -9.1872,-2.2176 -13.9392,-14.57278 0,0 4.752,12.35518 0,0 -0.9504,-2.53439 -1.9008,-3.80159 -4.752,-6.33599 -6.6528,-5.70239 -14.8896,-7.60318 -21.5424,-7.60318 -15.84,0 -29.4624,16.15677 -38.9664,29.77915 -2.2176,3.16799 -5.3856,5.70239 -7.6032,9.18718 -13.05001,19.57499 -25.54469,41.64902 -27.08566,65.44221 z M 318.264,106.17897 c 7.92,0 12.3552,-0.6336 13.3056,-0.6336 0.9504,0 1.584,0.3168 1.584,1.2672 0,0.6336 -0.3168,1.584 -2.5344,6.33599 -19.3248,41.50073 -32.6304,83.63506 -44.352,130.20458 -0.3168,1.2672 -1.2672,6.01919 -1.2672,10.77118 0,4.4352 1.2672,9.18719 5.7024,11.72158 8.5536,5.06879 15.5232,7.28639 20.2752,7.28639 6.9696,0 10.4544,-4.43519 10.4544,-11.72158 0,-6.33599 0.3168,-12.98878 1.2672,-18.05757 8.8704,-46.56952 22.176,-83.00146 42.768,-121.01739 9.8208,-18.05757 11.088,-19.00797 11.088,-20.59197 0,-0.6336 -0.3168,-1.584 -0.9504,-2.534393 12.672,-2.851195 27.8784,-4.751992 41.8176,-4.751992 1.584,0 7.92,2.217596 8.8704,3.167995 2.2176,2.217596 4.4352,4.43519 8.2368,4.43519 3.168,0 8.5536,-2.217594 10.4544,-3.484792 4.4352,-3.167994 6.6528,-6.652789 6.6528,-12.355179 0,-5.385591 -19.9584,-18.691168 -33.8976,-18.691168 -17.1072,0 -32.6304,2.217596 -47.2032,5.068791 -6.336,1.267198 -29.1456,4.751992 -45.6192,4.751992 -15.84,0 -14.8896,-2.217596 -21.5424,-2.217596 -3.8016,0 -5.7024,1.900797 -7.2864,3.484794 -1.584,1.583997 -2.5344,7.919987 -2.5344,13.622377 0,2.851195 0,5.068791 1.584,6.969588 4.752,5.702383 13.9392,6.969583 23.1264,6.969583 0,0 -9.1872,0 0,0 z m 234.7488,25.66076 c 0,2.85119 -0.9504,4.75199 -4.752,10.77118 -3.8016,6.01919 -2.2176,6.01919 -6.9696,12.35518 -9.1872,12.35518 -20.592,24.71036 -35.4816,38.33274 -4.1184,3.80159 -4.752,3.80159 -5.3856,3.80159 -0.3168,0 -0.9504,-0.3168 -0.9504,-0.9504 0,-0.9504 0.3168,-2.2176 3.4848,-8.87038 9.8208,-20.59197 21.8592,-34.21435 35.1648,-47.51992 7.2864,-7.28639 11.7216,-9.82079 13.3056,-9.82079 0.9504,0 1.584,0.3168 1.584,1.9008 0,0 0,-1.584 0,0 z m 243.6192,8.23679 c 0.3168,0 0.6336,0.31679 0.9504,0.95039 0.3168,0.9504 0.9504,1.9008 2.5344,3.168 1.2672,0.9504 1.2672,5.38559 1.2672,8.87038 0,30.72955 -17.424,56.07351 -34.5312,81.73427 -3.8016,5.70239 -6.0192,6.65278 -7.92,6.65278 -1.584,0 -4.1184,-4.11839 -5.0688,-6.65278 -1.2672,-3.4848 -1.584,-7.60319 -1.584,-9.18719 0,-24.71036 23.4432,-61.4591 38.9664,-81.73426 2.5344,-3.4848 4.4352,-3.80159 5.3856,-3.80159 0,0 -0.9504,0 0,0 z"
                   id="Type"
                   fill="#0079bf" />
                <g
                   id="Mark"
                   transform="matrix(1.18483,0,0,1.18483,0,34.725753)">
                  <rect
                     id="Board"
                     fill="url(#linearGradient-1)"
                     x="0"
                     y="1.4832001"
                     width="200"
                     height="200"
                     rx="25"
                     style="fill:url(#linearGradient-1)" />
                  <rect
                     id="Right-List"
                     fill="#ffffff"
                     x="113"
                     y="26"
                     width="61"
                     height="87.5"
                     rx="12" />
                  <rect
                     id="Left-List"
                     fill="#ffffff"
                     x="26"
                     y="26"
                     width="61"
                     height="137.5"
                     rx="12" />
                </g>
              </g>
            </g>
          </g>
        </g>
      </g>
    </g>
  </g>
</svg>
