<?xml version="1.0" encoding="UTF-8" standalone="no"?>
<svg
   xmlns:dc="http://purl.org/dc/elements/1.1/"
   xmlns:cc="http://creativecommons.org/ns#"
   xmlns:rdf="http://www.w3.org/1999/02/22-rdf-syntax-ns#"
   xmlns:svg="http://www.w3.org/2000/svg"
   xmlns="http://www.w3.org/2000/svg"
   xmlns:sodipodi="http://sodipodi.sourceforge.net/DTD/sodipodi-0.dtd"
   xmlns:inkscape="http://www.inkscape.org/namespaces/inkscape"
   id="Layer_1"
   viewBox="0 0 458.32446 158.71102"
   version="1.1"
   sodipodi:docname="wiki.svg"
   inkscape:version="1.0.1 (3bc2e813f5, 2020-09-07)"
   width="458.32446"
   height="158.71103">
  <metadata
     id="metadata62">
    <rdf:RDF>
      <cc:Work
         rdf:about="">
        <dc:format>image/svg+xml</dc:format>
        <dc:type
           rdf:resource="http://purl.org/dc/dcmitype/StillImage" />
        <dc:title></dc:title>
      </cc:Work>
    </rdf:RDF>
  </metadata>
  <defs
     id="defs60" />
  <sodipodi:namedview
     pagecolor="#1e1e1e"
     bordercolor="#666666"
     borderopacity="1"
     objecttolerance="10"
     gridtolerance="10"
     guidetolerance="10"
     inkscape:pageopacity="0"
     inkscape:pageshadow="2"
     inkscape:window-width="1600"
     inkscape:window-height="1137"
     id="namedview58"
     showgrid="false"
     inkscape:zoom="1.4142136"
     inkscape:cx="189.62855"
     inkscape:cy="149.61296"
     inkscape:window-x="1272"
     inkscape:window-y="-8"
     inkscape:window-maximized="1"
     inkscape:current-layer="Layer_1"
     inkscape:pagecheckerboard="false"
     fit-margin-left="0"
     fit-margin-right="0"
     fit-margin-bottom="0"
     fit-margin-top="0"
     lock-margins="true"
     inkscape:document-rotation="0" />
  <style
     id="style51">.st0{fill:#7289DA;}</style>
  <g
     id="g2232"
     transform="translate(-35.501183,-58.499996)">
    <g
       id="g30"
       transform="matrix(0.17860913,0,0,0.17860913,35.208303,47.550944)"
       style="fill:#ffffff;fill-opacity:1">
      <path
         d="M 933.5,274 562.8,88.6 C 538.9,75.7 519.6,69.7 500.7,69.7 c -19.1,0 -37.9,6.1 -60.6,17.6 L 71,271.1 c -73.2,36.4 -89,83.6 0,124.9 v 30.7 84.4 77.5 c -18.4,10.6 -30.7,30.5 -30.7,53.2 0,34 27.5,61.5 61.5,61.5 34,0 61.5,-27.5 61.5,-61.5 0,-22.8 -12.4,-42.6 -30.7,-53.2 V 426.7 c 0,0 0,-0.1 0,-0.1 l 309,154 c 18,11.2 37.9,19.3 60,19.3 18.4,0 38.3,-5.6 60,-19.5 L 933.7,392.9 c 80.4,-41.2 69.6,-83.5 -0.2,-118.9 z M 905.9,338.6 534,526 l -2.9,1.5 -2.7,1.8 c -10.2,6.6 -19,9.8 -26.9,9.8 -7.8,0 -16.9,-3.3 -27.8,-10.1 l -2.4,-1.5 -2.6,-1.3 L 98.1,341.4 97.4,341 96.6,340.7 c -5.4,-2.5 -9.8,-4.8 -13.4,-6.9 3.9,-2.4 8.8,-5.2 14.8,-8.2 v 0 0 l 369.1,-183.8 0.1,-0.1 0.1,-0.1 c 19.7,-9.9 28.4,-11.1 33.2,-11.1 v 0 c 5,0 13.9,1.2 33.2,11.6 l 0.8,0.5 0.9,0.4 370.6,185.3 c 3.5,1.8 6.6,3.5 9.2,5 -2.6,1.7 -5.7,3.5 -9.3,5.3 z"
         id="path26"
         style="fill:#ffffff;fill-opacity:1;stroke:#fefefe;stroke-width:16.7965;stroke-miterlimit:4;stroke-dasharray:none;stroke-opacity:1" />
      <path
         d="m 781.2,610.79764 v 20.9 144.4 c 0,7.8 -3.9,16.3 -11.5,25.5 -10.8,13.1 -28.2,25.9 -50.2,37.2 -24.7,12.6 -55.2,23 -88.2,30.2 -35.7,7.7 -73.9,11.6 -113.3,11.6 -39.4,0 -77.6,-3.9 -113.3,-11.6 -33,-7.1 -63.5,-17.5 -88.2,-30.2 -22,-11.2 -39.4,-24.1 -50.2,-37.2 -7.6,-9.2 -11.4,-17.7 -11.4,-25.5 v -144.4 -20.9 -48.6 l -60.9,-30.4 v 79 20.9 145 0 c 0.6,91.1 145.5,164.8 324.1,164.8 178.6,0 323.5,-73.7 324.1,-164.8 v 0 -145 -20.9 -97.2 l -60.9,30.7 z"
         id="path28"
         style="fill:#ffffff;fill-opacity:1;stroke:#ffffff;stroke-width:16.7965;stroke-miterlimit:4;stroke-dasharray:none;stroke-opacity:1" />
    </g>
    <text
       xml:space="preserve"
       style="font-style:normal;font-variant:normal;font-weight:bold;font-stretch:normal;font-size:122.54px;line-height:1.25;font-family:'Times New Roman';-inkscape-font-specification:'Times New Roman, Bold';font-variant-ligatures:normal;font-variant-caps:normal;font-variant-numeric:normal;font-variant-east-asian:normal;fill:#ffffff;fill-opacity:1;stroke:#ffffff;stroke-width:3;stroke-miterlimit:4;stroke-dasharray:none;stroke-opacity:1"
       x="237.07388"
       y="183.40636"
       id="text87"><tspan
         sodipodi:role="line"
         id="tspan85"
         x="237.07388"
         y="183.40636"
         style="font-style:normal;font-variant:normal;font-weight:bold;font-stretch:normal;font-size:122.54px;font-family:'Times New Roman';-inkscape-font-specification:'Times New Roman, Bold';font-variant-ligatures:normal;font-variant-caps:normal;font-variant-numeric:normal;font-variant-east-asian:normal;fill:#ffffff;fill-opacity:1;stroke:#ffffff;stroke-width:3;stroke-miterlimit:4;stroke-dasharray:none;stroke-opacity:1">Wiki</tspan></text>
  </g>
</svg>
